<?xml version="1.0" encoding="utf-8"?>
<!-- Generator: Adobe Illustrator 19.1.0, SVG Export Plug-In . SVG Version: 6.00 Build 0)  -->
<svg version="1.1" id="Layer_1" xmlns="http://www.w3.org/2000/svg" xmlns:xlink="http://www.w3.org/1999/xlink" x="0px" y="0px"
	 viewBox="0 0 146.1 146.1" style="enable-background:new 0 0 146.1 146.1;" xml:space="preserve">
<style type="text/css">
	.st0{fill:#FFFFFF;}
</style>
<g id="XMLID_4_">
	<path id="XMLID_113_" class="st0" d="M73,0C32.7,0,0,32.7,0,73c0,40.3,32.7,73,73,73s73-32.7,73-73C146.1,32.7,113.4,0,73,0z
		 M73,132.9c-33,0-59.8-26.8-59.8-59.8C13.2,40,40,13.2,73,13.2S132.9,40,132.9,73C132.9,106.1,106.1,132.9,73,132.9z"/>
	<g id="XMLID_108_">
		<g id="XMLID_111_">
			<polygon id="XMLID_112_" class="st0" points="94.3,30.3 94.3,58.8 76.3,30.3 69.8,30.3 51.8,58.8 51.8,30.3 41.8,30.3 41.8,69.1 
				56.1,69.1 73,42.3 73,42.3 73,42.3 73,42.3 73,42.3 73,42.3 73,42.3 90,69.1 104.3,69.1 104.3,30.3 			"/>
		</g>
		<g id="XMLID_109_">
			<polygon id="XMLID_110_" class="st0" points="94.3,115.8 94.3,87.2 76.3,115.8 69.8,115.8 51.8,87.2 51.8,115.8 41.8,115.8 
				41.8,77 56.1,77 73,103.8 73,103.8 73,103.8 73,103.8 73,103.8 73,103.8 73,103.8 90,77 104.3,77 104.3,115.8 			"/>
		</g>
	</g>
</g>
</svg>
