<?xml version="1.0" encoding="utf-8"?>
<!-- Generator: Adobe Illustrator 19.1.0, SVG Export Plug-In . SVG Version: 6.00 Build 0)  -->
<svg version="1.1" id="Layer_1" xmlns="http://www.w3.org/2000/svg" xmlns:xlink="http://www.w3.org/1999/xlink" x="0px" y="0px"
	 viewBox="0 0 259.4 58.2" style="enable-background:new 0 0 259.4 58.2;" xml:space="preserve">
<style type="text/css">
	.st0{fill:#3F5DAB;}
</style>
<g id="XMLID_51_">
	<g id="XMLID_164_">
		<g id="XMLID_165_">
			<path id="XMLID_178_" class="st0" d="M93.7,36.3l4.6-24.2h7l-7.5,34h-7.1l-5.5-22.8l-5.5,22.8h-7.1l-7.5-34h7l4.6,24.2l5.6-24.2
				h5.9L93.7,36.3z"/>
			<path id="XMLID_175_" class="st0" d="M124.4,39.1h-12.3l-2.3,7h-7.5l12.7-34h6.5l12.7,34h-7.5L124.4,39.1z M114,33.4h8.5
				l-4.3-12.7L114,33.4z"/>
			<path id="XMLID_173_" class="st0" d="M144.3,37.7l7.7-25.6h7.8l-11.8,34h-7.3l-11.8-34h7.8L144.3,37.7z"/>
			<path id="XMLID_171_" class="st0" d="M171.2,12.1l8.7,24.7l8.7-24.7h9.2v34h-7v-9.3l0.7-16.1l-9.2,25.4h-4.8l-9.2-25.3l0.7,16
				v9.3h-7v-34H171.2z"/>
			<path id="XMLID_169_" class="st0" d="M215.6,23.8l6.4-11.7h8.1L220.1,29l10.2,17.2h-8.2l-6.5-11.9l-6.5,11.9h-8.2L211.1,29
				l-9.9-16.9h8.1L215.6,23.8z"/>
			<path id="XMLID_166_" class="st0" d="M245.5,33.7h-5.6v12.5h-7v-34h12.6c2,0,3.7,0.2,5.3,0.7c1.6,0.4,2.9,1.1,3.9,2
				c1.1,0.9,1.9,1.9,2.5,3.2c0.6,1.3,0.9,2.8,0.9,4.4c0,1.2-0.1,2.4-0.4,3.4c-0.3,1-0.7,1.9-1.2,2.6c-0.5,0.8-1.2,1.4-1.9,2
				c-0.7,0.6-1.6,1.1-2.5,1.5l7.4,13.9v0.3h-7.5L245.5,33.7z M239.9,28h5.7c0.9,0,1.7-0.1,2.4-0.4c0.7-0.2,1.3-0.6,1.7-1
				c0.5-0.4,0.8-1,1-1.6c0.2-0.6,0.4-1.3,0.4-2.1c0-1.6-0.5-2.9-1.4-3.8c-0.9-0.9-2.3-1.4-4.2-1.4h-5.6V28z"/>
		</g>
	</g>
	<path id="XMLID_161_" class="st0" d="M29.1,0C13,0,0,13,0,29.1c0,16.1,13,29.1,29.1,29.1s29.1-13,29.1-29.1C58.2,13,45.2,0,29.1,0z
		 M29.1,53C15.9,53,5.3,42.3,5.3,29.1c0-13.2,10.7-23.8,23.8-23.8S53,15.9,53,29.1C53,42.3,42.3,53,29.1,53z"/>
	<g id="XMLID_156_">
		<g id="XMLID_159_">
			<polygon id="XMLID_160_" class="st0" points="37.6,12.1 37.6,23.5 30.4,12.1 27.8,12.1 20.6,23.5 20.6,12.1 16.7,12.1 16.7,27.6 
				22.4,27.6 29.1,16.9 29.1,16.9 29.1,16.9 29.1,16.9 29.1,16.9 29.1,16.9 29.1,16.9 35.9,27.6 41.6,27.6 41.6,12.1 			"/>
		</g>
		<g id="XMLID_157_">
			<polygon id="XMLID_158_" class="st0" points="37.6,46.2 37.6,34.8 30.4,46.2 27.8,46.2 20.6,34.8 20.6,46.2 16.7,46.2 16.7,30.7 
				22.4,30.7 29.1,41.4 29.1,41.4 29.1,41.4 29.1,41.4 29.1,41.4 29.1,41.4 29.1,41.4 35.9,30.7 41.6,30.7 41.6,46.2 			"/>
		</g>
	</g>
</g>
</svg>
