<?xml version="1.0" encoding="utf-8"?>
<!-- Generator: Adobe Illustrator 19.1.0, SVG Export Plug-In . SVG Version: 6.00 Build 0)  -->
<svg version="1.1" id="Layer_1" xmlns="http://www.w3.org/2000/svg" xmlns:xlink="http://www.w3.org/1999/xlink" x="0px" y="0px"
	 viewBox="0 0 146.1 184.1" style="enable-background:new 0 0 146.1 184.1;" xml:space="preserve">
<style type="text/css">
	.st0{fill:#FFFFFF;}
</style>
<g id="XMLID_49_">
	<g id="XMLID_146_">
		<g id="XMLID_32_">
			<path id="XMLID_62_" class="st0" d="M21.6,176.8l3.4-18.2h5.3l-5.7,25.6h-5.3L15.1,167L11,184.1H5.7L0,158.6h5.3l3.5,18.2
				l4.2-18.2h4.5L21.6,176.8z"/>
			<path id="XMLID_57_" class="st0" d="M44.6,178.9h-9.2l-1.8,5.3H28l9.5-25.6h4.9l9.6,25.6h-5.6L44.6,178.9z M36.8,174.6h6.4
				L40,165L36.8,174.6z"/>
			<path id="XMLID_40_" class="st0" d="M59.6,177.8l5.8-19.2h5.9l-8.9,25.6h-5.5L48,158.6h5.8L59.6,177.8z"/>
			<path id="XMLID_38_" class="st0" d="M79.8,158.6l6.6,18.5l6.5-18.5h6.9v25.6h-5.3v-7l0.5-12.1l-6.9,19.1h-3.6l-6.9-19l0.5,12v7
				H73v-25.6H79.8z"/>
			<path id="XMLID_36_" class="st0" d="M113.2,167.4l4.8-8.8h6.1l-7.4,12.7l7.6,12.9h-6.1l-4.9-9l-4.9,9h-6.1l7.6-12.9l-7.4-12.7
				h6.1L113.2,167.4z"/>
			<path id="XMLID_33_" class="st0" d="M135.6,174.8h-4.2v9.4h-5.3v-25.6h9.5c1.5,0,2.8,0.2,4,0.5c1.2,0.3,2.2,0.8,3,1.5
				c0.8,0.6,1.4,1.5,1.9,2.4c0.4,1,0.6,2.1,0.6,3.3c0,0.9-0.1,1.8-0.3,2.5c-0.2,0.7-0.5,1.4-0.9,2c-0.4,0.6-0.9,1.1-1.4,1.5
				c-0.6,0.4-1.2,0.8-1.9,1.1l5.5,10.4v0.2h-5.7L135.6,174.8z M131.4,170.5h4.2c0.7,0,1.3-0.1,1.8-0.3c0.5-0.2,1-0.4,1.3-0.8
				c0.3-0.3,0.6-0.7,0.8-1.2c0.2-0.5,0.3-1,0.3-1.6c0-1.2-0.3-2.2-1-2.8c-0.7-0.7-1.7-1-3.2-1h-4.2V170.5z"/>
		</g>
	</g>
	<path id="XMLID_28_" class="st0" d="M73,0C32.7,0,0,32.7,0,73c0,40.3,32.7,73,73,73s73-32.7,73-73C146.1,32.7,113.4,0,73,0z
		 M73,132.9c-33,0-59.8-26.8-59.8-59.8C13.2,40,40,13.2,73,13.2S132.9,40,132.9,73C132.9,106.1,106.1,132.9,73,132.9z"/>
	<g id="XMLID_23_">
		<g id="XMLID_26_">
			<polygon id="XMLID_27_" class="st0" points="94.3,30.3 94.3,58.8 76.3,30.3 69.8,30.3 51.8,58.8 51.8,30.3 41.8,30.3 41.8,69.1 
				56.1,69.1 73,42.3 73,42.3 73,42.3 73,42.3 73,42.3 73,42.3 73,42.3 90,69.1 104.3,69.1 104.3,30.3 			"/>
		</g>
		<g id="XMLID_24_">
			<polygon id="XMLID_25_" class="st0" points="94.3,115.8 94.3,87.2 76.3,115.8 69.8,115.8 51.8,87.2 51.8,115.8 41.8,115.8 
				41.8,77 56.1,77 73,103.8 73,103.8 73,103.8 73,103.8 73,103.8 73,103.8 73,103.8 90,77 104.3,77 104.3,115.8 			"/>
		</g>
	</g>
</g>
</svg>
